<svg xmlns="http://www.w3.org/2000/svg" width="86" height="82.554" viewBox="0 0 86 82.554">
  <g id="_60484" data-name="60484" transform="translate(0 -2.765)">
    <g id="Group_8435" data-name="Group 8435" transform="translate(0 2.765)">
      <path id="Path_8744" data-name="Path 8744" d="M29.411,18.479,63.7,9.121,61.88,5.451a4.831,4.831,0,0,0-6.471-2.183L24.718,18.479Z" transform="translate(-9.314 -2.765)" fill="#f9b333"/>
      <path id="Path_8745" data-name="Path 8745" d="M83.827,13.4a4.827,4.827,0,0,0-1.275.174l-8.054,2.2L49.9,22.486H89.988l-1.507-5.524A4.82,4.82,0,0,0,83.827,13.4Z" transform="translate(-18.803 -6.772)" fill="#f9b333"/>
      <path id="Path_8746" data-name="Path 8746" d="M76.217,33.405H4.838A4.835,4.835,0,0,0,.174,36.969,5,5,0,0,0,0,38.234v53.8a4.83,4.83,0,0,0,4.829,4.829H76.207a4.83,4.83,0,0,0,4.829-4.829V78.564H52.382a8.214,8.214,0,0,1-8.209-8.209V59.616a8.2,8.2,0,0,1,8.2-8.2H81.036V38.234A4.816,4.816,0,0,0,76.217,33.405Z" transform="translate(0 -14.31)" fill="#f9b333"/>
      <path id="Path_8747" data-name="Path 8747" d="M113.179,68.95a4.824,4.824,0,0,0-1.69-1,4.925,4.925,0,0,0-1.565-.261H81.136a4.83,4.83,0,0,0-4.829,4.829V83.262a4.83,4.83,0,0,0,4.829,4.829h28.789a4.921,4.921,0,0,0,1.565-.261,4.683,4.683,0,0,0,1.69-1,4.812,4.812,0,0,0,1.574-3.564V72.513A4.812,4.812,0,0,0,113.179,68.95Zm-21.961,9.9A2.415,2.415,0,0,1,88.8,81.263H87.2a2.415,2.415,0,0,1-2.414-2.414v-1.6a2.366,2.366,0,0,1,.927-1.893,2.44,2.44,0,0,1,1.487-.521h1.6a2.415,2.415,0,0,1,2.414,2.414v1.6Z" transform="translate(-28.753 -27.227)" fill="#f9b333"/>
    </g>
  </g>
</svg>
