<?xml version="1.0" encoding="utf-8"?>
<!-- Generator: Adobe Illustrator 25.2.1, SVG Export Plug-In . SVG Version: 6.00 Build 0)  -->
<svg version="1.1" id="Layer_1" xmlns="http://www.w3.org/2000/svg" xmlns:xlink="http://www.w3.org/1999/xlink" x="0px" y="0px"
	 viewBox="0 0 512 512" style="enable-background:new 0 0 512 512;" xml:space="preserve">
<style type="text/css">
	.st0{fill:#303841;}
	.st1{fill:#FFFFFF;}
</style>
<path id="Rectangle_17770" class="st0" d="M256,14.5L256,14.5c133.4,0,241.5,108.1,241.5,241.5l0,0c0,133.4-108.1,241.5-241.5,241.5
	l0,0C122.6,497.5,14.5,389.4,14.5,256l0,0C14.5,122.6,122.6,14.5,256,14.5z"/>
<path id="Rectangle_17771" class="st1" d="M256,159.4L256,159.4c53.4,0,96.6,43.2,96.6,96.6l0,0c0,53.4-43.2,96.6-96.6,96.6l0,0
	c-53.4,0-96.6-43.2-96.6-96.6l0,0C159.4,202.6,202.6,159.4,256,159.4z"/>
</svg>
