<?xml version="1.0" encoding="utf-8"?>
<!-- Generator: Adobe Illustrator 25.2.1, SVG Export Plug-In . SVG Version: 6.00 Build 0)  -->
<svg version="1.1" id="Layer_1" xmlns="http://www.w3.org/2000/svg" xmlns:xlink="http://www.w3.org/1999/xlink" x="0px" y="0px"
	 viewBox="0 0 100 100" style="enable-background:new 0 0 100 100;" xml:space="preserve">
<style type="text/css">
	.st0{fill:#0D1724;}
	.st1{fill:#FFFFFF;}
	.st2{fill:#FAC32D;}
</style>
<g id="Group_6" transform="translate(-303.187 -662.187)">
	<g id="Line_16">
		<path class="st0" d="M352.3,701.8c-3.6,0-6.5-2.9-6.5-6.5v-24.6c0-3.6,2.9-6.5,6.5-6.5s6.5,2.9,6.5,6.5v24.6
			C358.8,698.9,355.9,701.8,352.3,701.8z"/>
	</g>
	<g id="Line_17">
		<path class="st0" d="M352.3,760.2c-3.6,0-6.5-2.9-6.5-6.5v-24.6c0-3.6,2.9-6.5,6.5-6.5s6.5,2.9,6.5,6.5v24.6
			C358.8,757.2,355.9,760.2,352.3,760.2z"/>
	</g>
	<g id="Line_18">
		<path class="st0" d="M335.4,718.7h-24.6c-3.6,0-6.5-2.9-6.5-6.5c0-3.6,2.9-6.5,6.5-6.5h24.6c3.6,0,6.5,2.9,6.5,6.5
			C341.9,715.8,339,718.7,335.4,718.7z"/>
	</g>
	<g id="Line_19">
		<path class="st0" d="M393.7,718.7h-24.6c-3.6,0-6.5-2.9-6.5-6.5c0-3.6,2.9-6.5,6.5-6.5h24.6c3.6,0,6.5,2.9,6.5,6.5
			C400.3,715.8,397.3,718.7,393.7,718.7z"/>
	</g>
	<g id="Ellipse_6" transform="translate(306.224 665.224)">
		<g>
			<circle class="st1" cx="46.1" cy="47" r="34.8"/>
		</g>
		<g>
			<path class="st0" d="M46.1,81.7c-19.2,0-34.8-15.6-34.8-34.8s15.6-34.8,34.8-34.8c19.2,0,34.8,15.6,34.8,34.8
				S65.2,81.7,46.1,81.7z M46.1,25.2c-12,0-21.7,9.7-21.7,21.7s9.7,21.7,21.7,21.7c12,0,21.7-9.7,21.7-21.7S58.1,25.2,46.1,25.2z"/>
		</g>
	</g>
	<g id="Ellipse_7">
		<circle class="st2" cx="352.3" cy="712.2" r="13"/>
	</g>
</g>
</svg>
