<?xml version="1.0" encoding="utf-8"?>
<!-- Generator: Adobe Illustrator 25.2.1, SVG Export Plug-In . SVG Version: 6.00 Build 0)  -->
<svg version="1.1" id="Layer_1" xmlns="http://www.w3.org/2000/svg" xmlns:xlink="http://www.w3.org/1999/xlink" x="0px" y="0px"
	 viewBox="0 0 100 100" style="enable-background:new 0 0 100 100;" xml:space="preserve">
<style type="text/css">
	.st0{fill:#303841;}
</style>
<path id="Icon_awesome-suitcase" class="st0" d="M27.1,91.3h46.1v-72c0-4.8-3.9-8.6-8.6-8.6l0,0H35.7c-4.8,0-8.6,3.9-8.6,8.6l0,0
	V91.3z M38.6,22.2h23V28h-23V22.2z M96.1,36.6v46.1c0,4.8-3.9,8.6-8.6,8.6h-8.6V28h8.6C92.3,28,96.1,31.9,96.1,36.6z M21.3,91.3
	h-8.6c-4.8,0-8.6-3.9-8.6-8.6V36.6c0-4.8,3.9-8.6,8.6-8.6h8.6V91.3z"/>
</svg>
