<?xml version="1.0" encoding="utf-8"?>
<!-- Generator: Adobe Illustrator 25.2.1, SVG Export Plug-In . SVG Version: 6.00 Build 0)  -->
<svg version="1.1" id="Layer_1" xmlns="http://www.w3.org/2000/svg" xmlns:xlink="http://www.w3.org/1999/xlink" x="0px" y="0px"
	 viewBox="0 0 100 100" style="enable-background:new 0 0 100 100;" xml:space="preserve">
<style type="text/css">
	.st0{fill:none;}
	.st1{fill:#CECECE;}
</style>
<g id="Rectangle_17749">
	<g>
		<path class="st0" d="M26.1,8.8h50.7c9.3,0,16.9,7.6,16.9,16.9v50.7c0,9.3-7.6,16.9-16.9,16.9H26.1c-9.3,0-16.9-7.6-16.9-16.9V25.7
			C9.2,16.4,16.7,8.8,26.1,8.8z"/>
	</g>
	<g>
		<path class="st1" d="M76.7,93.2H26.1c-9.3,0-16.9-7.6-16.9-16.9V25.7c0-9.3,7.6-16.9,16.9-16.9h50.7c9.3,0,16.9,7.6,16.9,16.9
			v50.7C93.6,85.7,86,93.2,76.7,93.2z M26.1,17.2c-4.7,0-8.4,3.8-8.4,8.4v50.7c0,4.7,3.8,8.4,8.4,8.4h50.7c4.7,0,8.4-3.8,8.4-8.4
			V25.7c0-4.7-3.8-8.4-8.4-8.4H26.1z"/>
	</g>
</g>
</svg>
