<?xml version="1.0" encoding="utf-8"?>
<!-- Generator: Adobe Illustrator 25.2.1, SVG Export Plug-In . SVG Version: 6.00 Build 0)  -->
<svg version="1.1" id="Layer_1" xmlns="http://www.w3.org/2000/svg" xmlns:xlink="http://www.w3.org/1999/xlink" x="0px" y="0px"
	 viewBox="0 0 100 100" style="enable-background:new 0 0 100 100;" xml:space="preserve">
<style type="text/css">
	.st0{fill:#303841;}
</style>
<path id="Icon_ionic-ios-arrow-round-back" class="st0" d="M35.7,19.8c1.7,1.7,1.7,4.5,0,6.2L15.2,46.6h78.2c2.4,0,4.4,2,4.4,4.4
	c0,2.4-2,4.4-4.4,4.4H15.2L35.7,76c1.7,1.7,1.7,4.5,0,6.2c-1.7,1.7-4.5,1.7-6.2,0c0,0,0,0,0,0L1.7,54.1l0,0
	c-0.4-0.4-0.7-0.9-0.9-1.4c-0.2-0.5-0.3-1.1-0.3-1.7c0-1.1,0.4-2.3,1.2-3.1l27.9-28.1C31.2,18.2,33.9,18.1,35.7,19.8
	C35.7,19.8,35.7,19.8,35.7,19.8z"/>
</svg>
