<?xml version="1.0" encoding="utf-8"?>
<!-- Generator: Adobe Illustrator 25.2.1, SVG Export Plug-In . SVG Version: 6.00 Build 0)  -->
<svg version="1.1" id="Layer_1" xmlns="http://www.w3.org/2000/svg" xmlns:xlink="http://www.w3.org/1999/xlink" x="0px" y="0px"
	 viewBox="0 0 100 100" style="enable-background:new 0 0 100 100;" xml:space="preserve">
<style type="text/css">
	.st0{fill:#303841;}
</style>
<path id="Icon_metro-cancel" class="st0" d="M49.8,2C23.1,2,1.5,23.7,1.5,50.4s21.6,48.4,48.4,48.4s48.4-21.6,48.4-48.4l0,0
	C98.2,23.7,76.5,2,49.8,2z M49.8,89.7c-21.7,0-39.3-17.6-39.3-39.3c0-21.7,17.6-39.3,39.3-39.3c21.7,0,39.3,17.6,39.3,39.3
	C89.1,72.1,71.5,89.7,49.8,89.7L49.8,89.7L49.8,89.7z M64.9,26.2L49.8,41.3L34.7,26.2l-9.1,9.1l15.1,15.1L25.6,65.5l9.1,9.1
	l15.1-15.1l15.1,15.1l9.1-9.1L58.9,50.4L74,35.3L64.9,26.2z"/>
</svg>
