<?xml version="1.0" encoding="utf-8"?>
<!-- Generator: Adobe Illustrator 25.2.1, SVG Export Plug-In . SVG Version: 6.00 Build 0)  -->
<svg version="1.1" id="Layer_1" xmlns="http://www.w3.org/2000/svg" xmlns:xlink="http://www.w3.org/1999/xlink" x="0px" y="0px"
	 viewBox="0 0 100 100" style="enable-background:new 0 0 100 100;" xml:space="preserve">
<style type="text/css">
	.st0{fill:#3A4750;}
</style>
<path id="Icon_awesome-eye" class="st0" d="M97,47.6c-8.9-17.8-27.1-29.2-47-29.3C30.1,18.4,11.9,29.8,3,47.6
	c-0.8,1.5-0.8,3.3,0,4.8c8.9,17.8,27.1,29.2,47,29.3c19.9-0.2,38.1-11.5,47-29.3C97.8,50.9,97.8,49.1,97,47.6z M50,73.8
	c-13.1,0-23.8-10.7-23.8-23.8S36.9,26.2,50,26.2S73.8,36.9,73.8,50S63.1,73.8,50,73.8z M50,34.1c-1.4,0-2.8,0.2-4.2,0.6
	c2.6,3.5,1.9,8.4-1.5,11.1c-2.8,2.1-6.7,2.1-9.5,0c-2.3,8.4,2.7,17.1,11.1,19.4S63,62.5,65.3,54.1c2.3-8.4-2.7-17.1-11.1-19.4
	C52.8,34.3,51.4,34.1,50,34.1L50,34.1z"/>
</svg>
