<?xml version="1.0" encoding="utf-8"?>
<!-- Generator: Adobe Illustrator 25.2.1, SVG Export Plug-In . SVG Version: 6.00 Build 0)  -->
<svg version="1.1" id="Layer_1" xmlns="http://www.w3.org/2000/svg" xmlns:xlink="http://www.w3.org/1999/xlink" x="0px" y="0px"
	 viewBox="0 0 512 512" style="enable-background:new 0 0 512 512;" xml:space="preserve">
<style type="text/css">
	.st0{fill:#C7C7C7;}
</style>
<path id="Rectangle_17770" class="st0" d="M256,42.5c28.8,0,56.8,5.6,83.1,16.8C364.5,70,387.4,85.4,407,105s35,42.5,45.8,67.9
	c11.1,26.3,16.8,54.3,16.8,83.1c0,28.8-5.6,56.8-16.8,83.1C442,364.5,426.6,387.4,407,407c-19.6,19.6-42.5,35-67.9,45.8
	c-26.3,11.1-54.3,16.8-83.1,16.8s-56.8-5.6-83.1-16.8C147.5,442,124.6,426.6,105,407c-19.6-19.6-35-42.5-45.8-67.9
	c-11.1-26.3-16.8-54.3-16.8-83.1c0-28.8,5.6-56.8,16.8-83.1C70,147.5,85.4,124.6,105,105s42.5-35,67.9-45.8
	C199.2,48.1,227.2,42.5,256,42.5 M256,14.5C122.6,14.5,14.5,122.6,14.5,256S122.6,497.5,256,497.5S497.5,389.4,497.5,256
	S389.4,14.5,256,14.5L256,14.5z"/>
</svg>
