<?xml version="1.0" encoding="utf-8"?>
<!-- Generator: Adobe Illustrator 25.2.1, SVG Export Plug-In . SVG Version: 6.00 Build 0)  -->
<svg version="1.1" id="Layer_1" xmlns="http://www.w3.org/2000/svg" xmlns:xlink="http://www.w3.org/1999/xlink" x="0px" y="0px"
	 viewBox="0 0 100 100" style="enable-background:new 0 0 100 100;" xml:space="preserve">
<style type="text/css">
	.st0{fill:#f9b333;}
</style>
<path id="Icon_material-contact-phone" class="st0" d="M88.8,15.3H9.4c-4.4,0-7.9,3.6-7.9,7.9v55.6c0,4.4,3.6,7.9,7.9,7.9h79.4
	c4.4,0,7.9-3.6,7.9-7.9l0-55.6C96.7,18.9,93.2,15.3,88.8,15.3z M33.2,27.2c6.6,0,11.9,5.3,11.9,11.9S39.8,51,33.2,51
	s-11.9-5.3-11.9-11.9l0,0C21.3,32.5,26.6,27.2,33.2,27.2C33.2,27.2,33.2,27.2,33.2,27.2z M57,74.8H9.4v-4c0-7.9,15.9-12.3,23.8-12.3
	S57,62.9,57,70.8V74.8z M72.3,58.9h6.5l6,7.9l-7.9,7.9c-5.3-3.9-9.1-9.5-10.8-15.8c-1.5-5.2-1.5-10.7,0-15.9
	c1.8-6.3,5.6-11.9,10.8-15.8l7.9,7.9l-6,7.9h-6.5C70.5,48.2,70.5,53.8,72.3,58.9L72.3,58.9z"/>
</svg>
