<?xml version="1.0" encoding="utf-8"?>
<!-- Generator: Adobe Illustrator 25.2.2, SVG Export Plug-In . SVG Version: 6.00 Build 0)  -->
<svg version="1.1" id="Layer_1" xmlns="http://www.w3.org/2000/svg" xmlns:xlink="http://www.w3.org/1999/xlink" x="0px" y="0px"
	 viewBox="0 0 232 242.4" style="enable-background:new 0 0 232 242.4;" xml:space="preserve">
<style type="text/css">
	.st0{fill:#f9b333;}
</style>
<g id="payment-method" transform="translate(0 -0.996)">
	<g id="Group_8437" transform="translate(0 0.996)">
		<g id="Group_8436">
			<path id="Path_8750" class="st0" d="M100.1,44.3H81.8c-5.1,0-9.2,4.1-9.2,9.2c0,5.1,4.1,9.2,9.2,9.2h18.3c5.1,0,9.2-4.1,9.2-9.2
				C109.3,48.4,105.2,44.3,100.1,44.3z"/>
			<circle id="Ellipse_12" class="st0" cx="90.5" cy="189.1" r="9.2"/>
			<path id="Path_8751" class="st0" d="M161.7,50.3v-4.4c0-18.9-14.5-34.2-32.3-34.2H51c-17.8,0-32.3,15.3-32.3,34.2v150.6
				c0,18.9,14.5,34.2,32.3,34.2h78.4c17.8,0,32.3-15.4,32.3-34.2V193c10.1-0.5,20-3.3,28.8-8.2c3.9-2.2,5.4-7.4,3.3-11.6
				c-2.1-4.2-7-5.8-10.9-3.5c-7.3,4.1-15.6,6.3-24,6.3c-28.3,0-51.3-24.4-51.3-54.3s23-54.3,51.3-54.3s51.3,24.4,51.3,54.3
				c0,7.6-1.5,15-4.4,22c-1.8,4.3,0,9.4,4.1,11.3c4.1,1.9,8.9,0,10.7-4.4c3.8-9.2,5.8-19,5.8-28.9C226.3,83.3,197.6,51.9,161.7,50.3
				z M145.5,51.7c-30.8,6.6-54.1,35.5-54.1,70s23.3,63.5,54.1,70v4.8c0,9.4-7.2,17.1-16.2,17.1H51c-8.9,0-16.2-7.7-16.2-17.1V45.9
				c0-9.4,7.2-17.1,16.2-17.1h78.4c8.9,0,16.2,7.7,16.2,17.1L145.5,51.7L145.5,51.7z"/>
			<path id="Path_8752" class="st0" d="M157.5,167.4c5.1,0,9.2-4.1,9.2-9.2v-1.6c9.4-2.4,16-10.8,16-20.5v-3.7
				c0-11.6-9.5-21.1-21.3-21.1h-6.1c-1.5,0-2.9-1.5-2.9-3.2V108c0-1.5,1.2-2.8,2.8-2.8c0,0,0.1,0,0.1,0h11.3c5.1,0,9.2-4.1,9.2-9.2
				c0-5.1-4.1-9.2-9.2-9.2v-1.4c0-5.1-4.1-9.2-9.2-9.2c-5.1,0-9.2,4.1-9.2,9.2V88c-8.5,3-14.2,11-14.2,19.9v0.4
				c0,11.8,9.5,21.5,21.2,21.5h6.1c1.5-0.1,2.8,1.1,2.9,2.6c0,0,0,0.1,0,0.1v3.7c0,1.5-1.3,2.8-2.8,2.8c0,0-0.1,0-0.1,0h-18.6
				c-5.1,0-9.2,4.1-9.2,9.2c0,5.1,4.1,9.2,9.2,9.2h5.5v0.9C148.3,163.3,152.4,167.4,157.5,167.4z"/>
		</g>
	</g>
</g>
</svg>
