<?xml version="1.0" encoding="utf-8"?>
<!-- Generator: Adobe Illustrator 25.2.1, SVG Export Plug-In . SVG Version: 6.00 Build 0)  -->
<svg version="1.1" id="Layer_1" xmlns="http://www.w3.org/2000/svg" xmlns:xlink="http://www.w3.org/1999/xlink" x="0px" y="0px"
	 viewBox="0 0 100 100" style="enable-background:new 0 0 100 100;" xml:space="preserve">
<style type="text/css">
	.st0{fill:#FFFFFF;}
</style>
<path id="Icon_awesome-long-arrow-alt-right" class="st0" d="M29.8,42.4h65.1c1.4,0,2.6,1.2,2.6,2.6c0,0,0,0,0,0v12.1
	c0,1.4-1.2,2.6-2.6,2.6h0H29.8v9.9c0,2.9-2.3,5.2-5.2,5.2c-1.4,0-2.7-0.5-3.7-1.5L2.4,54.7c-2-2-2-5.3,0-7.3c0,0,0,0,0,0l18.6-18.6
	c2-2,5.3-2,7.3,0c1,1,1.5,2.3,1.5,3.7L29.8,42.4z"/>
</svg>
