<?xml version="1.0" encoding="utf-8"?>
<!-- Generator: Adobe Illustrator 25.2.1, SVG Export Plug-In . SVG Version: 6.00 Build 0)  -->
<svg version="1.1" id="Layer_1" xmlns="http://www.w3.org/2000/svg" xmlns:xlink="http://www.w3.org/1999/xlink" x="0px" y="0px"
	 viewBox="0 0 100 100" style="enable-background:new 0 0 100 100;" xml:space="preserve">
<style type="text/css">
	.st0{fill:#303841;}
</style>
<path id="Icon_awesome-car-alt" class="st0" d="M90.5,40l-2.3-5.7l-4.1-10.2C80.7,15.4,72.3,9.7,63,9.7H37
	c-9.3,0-17.8,5.7-21.2,14.3l-4.1,10.2L9.5,40C4.4,41.9,1.1,46.8,1,52.2V62c0,3.2,1.2,6.2,3.3,8.6v11c0,3.6,2.9,6.5,6.5,6.5l0,0h6.5
	c3.6,0,6.5-2.9,6.5-6.5c0,0,0,0,0,0V75h52.2v6.5c0,3.6,2.9,6.5,6.5,6.5l0,0h6.5c3.6,0,6.5-2.9,6.5-6.5l0,0v-11
	c2.1-2.4,3.3-5.4,3.3-8.6v-9.8C98.9,46.8,95.6,41.9,90.5,40z M28,29c1.5-3.7,5.1-6.2,9.1-6.2H63c4,0,7.6,2.4,9.1,6.2l4.1,10.2H23.9
	L28,29z M17.4,61.9c-3.4,0.2-6.3-2.4-6.5-5.8c0-0.2,0-0.5,0-0.7c-0.2-3.4,2.4-6.3,5.8-6.5c0.2,0,0.5,0,0.7,0c4.9,1,8.8,4.8,9.8,9.8
	C27.2,62.6,21.3,61.9,17.4,61.9z M82.6,61.9c-3.9,0-9.8,0.6-9.8-3.3c1-4.9,4.9-8.8,9.8-9.8c3.4-0.2,6.3,2.4,6.5,5.8
	c0,0.2,0,0.5,0,0.7c0.2,3.4-2.4,6.3-5.8,6.5C83.1,61.9,82.9,61.9,82.6,61.9z"/>
</svg>
