<svg xmlns="http://www.w3.org/2000/svg" width="22" height="22" viewBox="0 0 22 22">
  <g id="Icon_feather-copy" data-name="Icon feather-copy" transform="translate(-1.5 -1.5)">
    <path id="Path_8748" data-name="Path 8748" d="M15.4,13.5h8.55a1.9,1.9,0,0,1,1.9,1.9v8.55a1.9,1.9,0,0,1-1.9,1.9H15.4a1.9,1.9,0,0,1-1.9-1.9V15.4A1.9,1.9,0,0,1,15.4,13.5Z" transform="translate(-3.85 -3.85)" fill="none" stroke="#f9b333" stroke-linecap="round" stroke-linejoin="round" stroke-width="3"/>
    <path id="Path_8749" data-name="Path 8749" d="M5.85,15.35H4.9A1.9,1.9,0,0,1,3,13.45V4.9A1.9,1.9,0,0,1,4.9,3h8.55a1.9,1.9,0,0,1,1.9,1.9v.95" fill="none" stroke="#f9b333" stroke-linecap="round" stroke-linejoin="round" stroke-width="3"/>
  </g>
</svg>
