<?xml version="1.0" encoding="utf-8"?>
<!-- Generator: Adobe Illustrator 25.2.1, SVG Export Plug-In . SVG Version: 6.00 Build 0)  -->
<svg version="1.1" id="Layer_1" xmlns="http://www.w3.org/2000/svg" xmlns:xlink="http://www.w3.org/1999/xlink" x="0px" y="0px"
	 viewBox="0 0 100 100" style="enable-background:new 0 0 100 100;" xml:space="preserve">
<style type="text/css">
	.st0{fill:#3A4750;}
</style>
<path id="Rectangle_17411" class="st0" d="M7.2,30.1h49.7c3.2,0,5.7,2.6,5.7,5.7v0c0,3.2-2.6,5.7-5.7,5.7H7.2
	c-3.2,0-5.7-2.6-5.7-5.7v0C1.4,32.7,4,30.1,7.2,30.1z"/>
<path id="Path_8707" class="st0" d="M8.1,70h84.2c3.4,0.2,6.4-2.3,6.6-5.7c-0.3-3.4-3.2-6-6.6-5.7H8.1c-3.4-0.2-6.4,2.3-6.6,5.7
	C1.7,67.7,4.7,70.2,8.1,70z"/>
</svg>
