<?xml version="1.0" encoding="utf-8"?>
<!-- Generator: Adobe Illustrator 25.2.1, SVG Export Plug-In . SVG Version: 6.00 Build 0)  -->
<svg version="1.1" id="Layer_1" xmlns="http://www.w3.org/2000/svg" xmlns:xlink="http://www.w3.org/1999/xlink" x="0px" y="0px"
	 viewBox="0 0 100 100" style="enable-background:new 0 0 100 100;" xml:space="preserve">
<style type="text/css">
	.st0{fill:#f9b333;}
</style>
<g id="_272340" transform="translate(0 -35.857)">
	<g id="Group_8424" transform="translate(0 35.857)">
		<g id="Group_8423">
			<path id="Path_8741" class="st0" d="M96.2,77.4L58,13.9c-2.4-4-7.5-5.2-11.5-2.9c-1.2,0.7-2.1,1.7-2.9,2.9L5.3,77.4
				c-2.4,4-1.1,9.1,2.8,11.5c1.3,0.8,2.8,1.2,4.4,1.2h76.5c4.6,0,8.4-3.8,8.4-8.4C97.4,80.2,97,78.7,96.2,77.4L96.2,77.4z
				 M91.1,82.9c-0.4,0.7-1.2,1.2-2,1.2H12.5c-1.3,0-2.3-1-2.3-2.3c0-0.4,0.1-0.8,0.3-1.2l38.3-63.5c0.7-1.1,2.1-1.4,3.2-0.8
				c0.3,0.2,0.6,0.4,0.8,0.8l38.3,63.5C91.5,81.3,91.5,82.1,91.1,82.9z"/>
		</g>
	</g>
	<g id="Group_8426" transform="translate(8.668 40.947)">
		<g id="Group_8425">
			<path id="Path_8742" class="st0" d="M42.2,29.8c-2.3,0-4.1,1.2-4.1,3.4c0,6.7,0.8,16.3,0.8,23.1c0,1.7,1.5,2.5,3.3,2.5
				c1.4,0,3.3-0.7,3.3-2.5c0-6.7,0.8-16.3,0.8-23.1c-0.1-2-1.8-3.5-3.8-3.5C42.3,29.8,42.2,29.8,42.2,29.8z"/>
		</g>
	</g>
	<g id="Group_8428" transform="translate(8.633 47.638)">
		<g id="Group_8427">
			<path id="Path_8743" class="st0" d="M42.2,55.9C39.8,56,38,58,38,60.4c0.1,2.3,1.9,4.1,4.2,4.2c2.4-0.1,4.3-2.1,4.2-4.5
				C46.4,57.9,44.5,56,42.2,55.9z"/>
		</g>
	</g>
</g>
</svg>
