<svg xmlns="http://www.w3.org/2000/svg" width="19" height="16.339" viewBox="0 0 19 16.339">
  <g id="_272340" data-name="272340" transform="translate(0)">
    <g id="Group_8424" data-name="Group 8424" transform="translate(0)">
      <g id="Group_8423" data-name="Group 8423">
        <path id="Path_8741" data-name="Path 8741" d="M18.755,49.608,10.961,36.683a1.707,1.707,0,0,0-2.924,0L.244,49.608A1.707,1.707,0,0,0,1.706,52.2H17.293a1.707,1.707,0,0,0,1.462-2.588ZM17.7,50.72a.471.471,0,0,1-.409.239H1.706a.47.47,0,0,1-.4-.713L9.1,37.321a.47.47,0,0,1,.8,0L17.7,50.246A.47.47,0,0,1,17.7,50.72Z" transform="translate(0 -35.857)" fill="#f9b333"/>
      </g>
    </g>
    <g id="Group_8426" data-name="Group 8426" transform="translate(8.668 5.09)">
      <g id="Group_8425" data-name="Group 8425">
        <path id="Path_8742" data-name="Path 8742" d="M234.416,173.005c-.471,0-.838.252-.838.7,0,1.366.161,3.328.161,4.694,0,.356.31.5.677.5.275,0,.666-.149.666-.5,0-1.366.161-3.328.161-4.694A.738.738,0,0,0,234.416,173.005Z" transform="translate(-233.578 -173.005)" fill="#f9b333"/>
      </g>
    </g>
    <g id="Group_8428" data-name="Group 8428" transform="translate(8.634 11.781)">
      <g id="Group_8427" data-name="Group 8427">
        <path id="Path_8743" data-name="Path 8743" d="M233.535,353.306a.884.884,0,0,0,0,1.767.884.884,0,0,0,0-1.767Z" transform="translate(-232.651 -353.306)" fill="#f9b333"/>
      </g>
    </g>
  </g>
</svg>
