<?xml version="1.0" encoding="utf-8"?>
<!-- Generator: Adobe Illustrator 25.2.1, SVG Export Plug-In . SVG Version: 6.00 Build 0)  -->
<svg version="1.1" id="Layer_1" xmlns="http://www.w3.org/2000/svg" xmlns:xlink="http://www.w3.org/1999/xlink" x="0px" y="0px"
	 viewBox="0 0 100 100" style="enable-background:new 0 0 100 100;" xml:space="preserve">
<style type="text/css">
	.st0{fill:#303841;}
</style>
<path id="iconfinder_home_216242" class="st0" d="M50.1,4c0,0-30.9,26.6-48.1,41.1c-1.1,1-1.8,2.4-1.8,3.8c0,2.8,2.2,5,5,5
	c0,0,0,0,0,0h10v34.9c0,2.8,2.2,5,5,5c0,0,0,0,0,0h14.9c2.8,0,5-2.2,5-5l0,0v-20h20v20c0,2.8,2.2,5,5,5l0,0h15c2.8,0,5-2.2,5-5
	c0,0,0,0,0,0V53.9h10c2.8,0,5-2.2,5-5c0,0,0,0,0,0c0-1.5-0.7-2.9-1.9-3.8C81,30.6,50.1,4,50.1,4z"/>
</svg>
