<?xml version="1.0" encoding="utf-8"?>
<!-- Generator: Adobe Illustrator 25.2.1, SVG Export Plug-In . SVG Version: 6.00 Build 0)  -->
<svg version="1.1" id="Layer_1" xmlns="http://www.w3.org/2000/svg" xmlns:xlink="http://www.w3.org/1999/xlink" x="0px" y="0px"
	 viewBox="0 0 100 100" style="enable-background:new 0 0 100 100;" xml:space="preserve">
<style type="text/css">
	.st0{fill:#f9b333;}
</style>
<path id="Icon_awesome-clock" class="st0" d="M50.1,2.4C24,2.4,2.9,23.5,2.9,49.6S24,96.8,50.1,96.8s47.2-21.1,47.2-47.2l0,0
	C97.3,23.5,76.2,2.4,50.1,2.4C50.1,2.4,50.1,2.4,50.1,2.4z M61,69L44.2,56.8c-0.6-0.4-0.9-1.1-0.9-1.8v-32c0-1.3,1-2.3,2.3-2.3
	c0,0,0,0,0,0h9.1c1.3,0,2.3,1,2.3,2.3v26.2L69,58c1,0.7,1.2,2.2,0.5,3.2c0,0,0,0,0,0l-5.4,7.4C63.4,69.5,62,69.7,61,69z"/>
</svg>
